<svg xmlns="http://www.w3.org/2000/svg" width="1400" height="400" viewBox="0 0 1400 400"><rect width="100%" height="100%" fill="#DDDDDD"/><path fill="#999999" d="M339.9 244.115h21.32v15.17h-65.6v-15.17h24.02v-69.13q0-4.1.25-8.44l-17.06 14.27q-1.47 1.14-2.91 1.43-1.43.29-2.7.04-1.27-.24-2.26-.86-.98-.61-1.47-1.35l-6.4-8.78 36.16-30.75h16.65zm53.87-29.52h36.08v-38.79q0-5.49.74-12.13zm53.71 0h14.93v11.73q0 1.64-1.07 2.82-1.07 1.19-3.03 1.19h-10.83v28.95h-17.63v-28.95h-50.02q-2.05 0-3.61-1.27-1.55-1.27-1.96-3.15l-2.14-10.25 56.17-75.03h19.19zm110.13-14.6q0 15.5-3.32 26.94t-9.19 18.9q-5.86 7.46-13.86 11.11-7.99 3.65-17.26 3.65-9.26 0-17.17-3.65-7.92-3.65-13.74-11.11t-9.1-18.9-3.28-26.94q0-15.58 3.28-26.97 3.28-11.4 9.1-18.86 5.82-7.47 13.74-11.11 7.91-3.65 17.17-3.65 9.27 0 17.26 3.65 8 3.64 13.86 11.11 5.87 7.46 9.19 18.86 3.32 11.39 3.32 26.97m-20.91 0q0-12.87-1.89-21.32-1.88-8.44-5.04-13.44-3.16-5.01-7.26-7.01-4.1-2.01-8.53-2.01-4.34 0-8.4 2.01-4.06 2-7.18 7.01-3.11 5-4.96 13.44-1.84 8.45-1.84 21.32 0 12.88 1.84 21.32 1.85 8.45 4.96 13.45 3.12 5 7.18 7.01t8.4 2.01q4.43 0 8.53-2.01t7.26-7.01 5.04-13.45q1.89-8.44 1.89-21.32m116.03 0q0 15.5-3.32 26.94t-9.19 18.9q-5.86 7.46-13.85 11.11-8 3.65-17.27 3.65-9.26 0-17.17-3.65-7.92-3.65-13.74-11.11t-9.1-18.9-3.28-26.94q0-15.58 3.28-26.97 3.28-11.4 9.1-18.86 5.82-7.47 13.74-11.11 7.91-3.65 17.17-3.65 9.27 0 17.27 3.65 7.99 3.64 13.85 11.11 5.87 7.46 9.19 18.86 3.32 11.39 3.32 26.97m-20.91 0q0-12.87-1.89-21.32-1.88-8.44-5.04-13.44-3.16-5.01-7.26-7.01-4.1-2.01-8.53-2.01-4.34 0-8.4 2.01-4.06 2-7.18 7.01-3.11 5-4.96 13.44-1.84 8.45-1.84 21.32 0 12.88 1.84 21.32 1.85 8.45 4.96 13.45 3.12 5 7.18 7.01t8.4 2.01q4.43 0 8.53-2.01t7.26-7.01 5.04-13.45q1.89-8.44 1.89-21.32m151.12 32.15-10.74 10.58-27.8-27.8-28.04 27.96-10.74-10.58 28.04-28.12-26.73-26.74 10.66-10.66 26.73 26.74 26.57-26.57 10.82 10.66-26.65 26.65zm71.02-17.55h36.08v-38.79q0-5.49.73-12.13zm53.71 0h14.92v11.73q0 1.64-1.07 2.82-1.06 1.19-3.03 1.19h-10.82v28.95h-17.63v-28.95h-50.02q-2.05 0-3.61-1.27t-1.97-3.15l-2.13-10.25 56.17-75.03h19.19zm110.12-14.6q0 15.5-3.32 26.94t-9.18 18.9q-5.87 7.46-13.86 11.11-8 3.65-17.26 3.65-9.27 0-17.18-3.65t-13.74-11.11q-5.82-7.46-9.1-18.9t-3.28-26.94q0-15.58 3.28-26.97 3.28-11.4 9.1-18.86 5.83-7.47 13.74-11.11 7.91-3.65 17.18-3.65 9.26 0 17.26 3.65 7.99 3.64 13.86 11.11 5.86 7.46 9.18 18.86 3.32 11.39 3.32 26.97m-20.91 0q0-12.87-1.88-21.32-1.89-8.44-5.05-13.44-3.15-5.01-7.25-7.01-4.1-2.01-8.53-2.01-4.35 0-8.41 2.01-4.06 2-7.17 7.01-3.12 5-4.96 13.44-1.85 8.45-1.85 21.32 0 12.88 1.85 21.32 1.84 8.45 4.96 13.45 3.11 5 7.17 7.01t8.41 2.01q4.43 0 8.53-2.01t7.25-7.01q3.16-5 5.05-13.45 1.88-8.44 1.88-21.32m116.03 0q0 15.5-3.32 26.94t-9.18 18.9q-5.87 7.46-13.86 11.11-8 3.65-17.26 3.65-9.27 0-17.18-3.65t-13.74-11.11q-5.82-7.46-9.1-18.9t-3.28-26.94q0-15.58 3.28-26.97 3.28-11.4 9.1-18.86 5.83-7.47 13.74-11.11 7.91-3.65 17.18-3.65 9.26 0 17.26 3.65 7.99 3.64 13.86 11.11 5.86 7.46 9.18 18.86 3.32 11.39 3.32 26.97m-20.91 0q0-12.87-1.88-21.32-1.89-8.44-5.05-13.44-3.15-5.01-7.25-7.01-4.1-2.01-8.53-2.01-4.35 0-8.41 2.01-4.06 2-7.17 7.01-3.12 5-4.96 13.44-1.85 8.45-1.85 21.32 0 12.88 1.85 21.32 1.84 8.45 4.96 13.45 3.11 5 7.17 7.01t8.41 2.01q4.43 0 8.53-2.01t7.25-7.01q3.16-5 5.05-13.45 1.88-8.44 1.88-21.32"/></svg>